<?xml version="1.0" standalone="no"?>
<!DOCTYPE svg PUBLIC "-//W3C//DTD SVG 20010904//EN"
 "http://www.w3.org/TR/2001/REC-SVG-20010904/DTD/svg10.dtd">
<svg version="1.0" xmlns="http://www.w3.org/2000/svg"
 width="1024.000000pt" height="1024.000000pt" viewBox="0 0 1024.000000 1024.000000"
 preserveAspectRatio="xMidYMid meet">
<metadata>
Created by potrace 1.11, written by Peter Selinger 2001-2013
</metadata>
<g transform="translate(0.000000,1024.000000) scale(0.100000,-0.100000)"
fill="#000000" stroke="none">
<path d="M4926 8169 c-90 -12 -131 -32 -253 -123 -136 -101 -215 -143 -304
-162 -105 -22 -146 -43 -212 -110 -53 -55 -177 -224 -177 -243 0 -4 -9 -16
-19 -26 -11 -9 -35 -47 -53 -84 -28 -58 -32 -75 -32 -146 1 -44 1 -147 1 -230
-1 -250 3 -307 23 -381 32 -120 58 -292 66 -441 4 -79 11 -143 16 -143 5 0 6
-5 2 -11 -8 -14 -7 -154 2 -182 5 -16 8 -17 15 -6 5 8 9 26 9 40 0 31 55 99
81 99 11 0 25 -13 34 -32 8 -18 20 -41 27 -50 10 -14 10 -24 -1 -50 -20 -48
-44 -166 -37 -183 8 -23 22 -18 35 13 7 15 18 36 26 46 14 19 15 18 37 -9 32
-40 55 -90 62 -132 4 -21 14 -53 24 -70 15 -31 15 -35 -4 -75 -25 -52 -22 -70
14 -86 43 -20 81 -79 108 -171 36 -120 35 -118 41 -103 3 7 0 50 -7 95 -12 82
-38 157 -65 187 -8 9 -16 37 -19 62 -2 26 -9 55 -14 65 -6 10 -17 50 -26 88
-10 39 -28 115 -42 170 -13 55 -27 123 -30 150 -8 74 39 408 79 565 20 74 40
171 47 215 18 132 46 200 105 261 11 11 36 39 55 63 58 71 100 115 100 107 0
-5 7 -2 16 5 9 7 24 18 34 24 10 5 39 22 65 37 45 27 69 36 155 59 44 12 160
14 210 4 14 -3 54 -10 90 -16 70 -12 157 -43 231 -81 54 -28 79 -51 79 -72 0
-8 5 -18 10 -21 6 -3 10 -15 10 -26 0 -11 5 -17 10 -14 6 3 11 -4 12 -17 2
-41 3 -45 14 -59 6 -8 19 -31 29 -52 13 -29 15 -40 6 -51 -9 -11 -9 -16 0 -21
8 -6 7 -10 -2 -17 -11 -7 -11 -11 -1 -15 6 -2 12 -13 12 -23 0 -11 6 -23 13
-27 14 -9 40 -63 33 -70 -2 -3 -24 -7 -48 -10 -24 -3 -48 -9 -53 -14 -6 -4
-51 -13 -100 -20 -98 -13 -160 -35 -189 -68 -11 -11 -25 -21 -32 -21 -67 0
-15 -326 75 -476 39 -65 49 -105 33 -131 -4 -6 -52 -33 -107 -59 l-100 -46
-38 20 -37 20 -33 -32 c-17 -18 -46 -51 -64 -73 -31 -39 -31 -41 -14 -57 10
-9 23 -16 29 -16 24 0 11 -41 -22 -73 -71 -68 -127 -117 -134 -118 -30 -3 -58
-11 -66 -19 -6 -6 -17 -10 -25 -10 -22 0 -81 -43 -81 -59 0 -8 -5 -29 -11 -46
-18 -49 7 -123 49 -147 l33 -18 32 35 c29 32 36 35 59 26 19 -7 34 -6 52 2 30
14 32 25 9 43 -15 11 -15 13 -3 14 8 0 20 10 25 23 6 13 18 21 30 20 26 -3 76
21 97 46 13 16 30 21 62 21 25 0 48 -5 51 -10 5 -8 11 -8 19 0 17 13 102 2
117 -16 6 -8 22 -14 35 -14 12 0 26 -4 29 -10 3 -5 17 -10 30 -10 49 0 62 -44
32 -110 -14 -32 -112 -138 -153 -166 -41 -28 -160 -48 -235 -40 -48 6 -59 4
-59 -8 0 -25 12 -46 26 -46 8 0 14 -6 14 -14 0 -20 71 -44 152 -51 37 -4 84
-15 104 -26 38 -19 94 -18 119 1 6 5 19 2 29 -6 15 -10 16 -16 7 -27 -6 -8 -9
-22 -5 -31 4 -11 -1 -19 -18 -25 -13 -5 -30 -16 -37 -25 -7 -9 -19 -16 -26
-16 -7 0 -18 -6 -24 -14 -8 -9 -27 -14 -49 -12 -20 1 -47 -4 -59 -12 -13 -8
-30 -12 -38 -8 -9 3 -24 0 -35 -6 -15 -10 -29 -10 -63 -1 -29 8 -56 9 -75 4
-22 -7 -36 -5 -50 5 -11 8 -27 11 -35 8 -10 -3 -40 20 -86 65 -39 39 -75 71
-80 71 -6 0 -27 19 -48 42 -59 64 -86 90 -138 130 -49 39 -71 48 -61 26 3 -7
9 -22 13 -32 3 -11 19 -42 35 -70 15 -28 37 -71 48 -95 11 -24 29 -56 40 -71
11 -16 20 -34 20 -42 0 -7 28 -47 63 -88 59 -70 125 -118 167 -119 24 -1 171
-80 220 -118 25 -19 64 -39 87 -46 23 -6 45 -17 48 -25 10 -27 -40 -122 -78
-148 -71 -48 -48 -75 126 -148 20 -9 37 -20 37 -25 0 -5 9 -11 21 -14 21 -6
18 -27 -4 -27 -15 0 -19 -82 -5 -91 14 -9 55 1 55 14 1 38 29 78 85 123 7 5
20 21 29 34 12 18 25 23 62 24 52 1 63 12 20 19 -23 3 -21 4 9 6 29 1 36 -2
32 -14 -4 -9 0 -15 10 -15 9 0 16 -8 16 -20 0 -15 7 -20 25 -20 20 0 27 -6 31
-29 4 -17 14 -31 25 -34 11 -3 22 -17 25 -35 4 -17 13 -33 21 -36 11 -4 11
-10 3 -26 -8 -16 -8 -18 4 -14 11 4 13 0 9 -15 -3 -12 -1 -21 6 -21 6 0 11 -8
11 -18 0 -10 6 -26 14 -37 25 -37 27 -70 6 -113 -11 -23 -20 -46 -20 -52 0
-20 -67 -115 -116 -164 -34 -34 -79 -63 -149 -96 -178 -84 -285 -110 -456
-110 -165 0 -274 27 -454 112 -137 65 -216 144 -207 207 4 27 0 37 -19 52 -23
17 -24 18 -8 61 20 55 14 110 -17 139 -19 18 -24 19 -24 7 0 -9 -7 -18 -15
-22 -21 -8 -19 -42 4 -74 19 -26 46 -140 36 -150 -3 -3 -11 3 -19 13 -7 10
-18 15 -23 12 -22 -14 -80 93 -102 188 -7 31 -21 59 -37 73 -14 12 -23 29 -21
37 3 7 1 15 -5 17 -6 2 -10 17 -10 33 0 17 -4 35 -8 40 -4 6 -5 35 -3 67 5 55
6 57 53 82 26 14 57 26 68 26 34 0 54 -46 68 -159 4 -29 3 -32 -11 -21 -21 18
-32 -15 -12 -38 8 -9 20 -37 27 -61 11 -40 12 -42 25 -24 24 34 29 108 10 141
-16 26 -16 35 -6 73 21 74 24 99 12 113 -9 10 -8 16 4 26 8 7 15 23 15 36 0
13 8 28 19 33 29 16 51 135 58 307 4 108 3 153 -6 158 -8 5 -11 -25 -11 -113
0 -221 -49 -363 -144 -419 -29 -17 -161 -70 -256 -103 -61 -21 -80 -32 -73
-42 3 -6 7 -49 8 -96 1 -55 5 -86 13 -89 7 -2 12 -13 12 -23 0 -12 -4 -17 -11
-13 -8 4 -10 -7 -6 -37 8 -68 19 -103 34 -112 7 -5 11 -13 7 -18 -3 -6 3 -17
15 -25 12 -8 21 -24 21 -34 0 -10 5 -22 10 -25 15 -9 12 18 -6 53 -16 34 -16
78 1 76 6 -1 19 -26 30 -55 10 -30 25 -60 32 -67 7 -7 13 -17 13 -22 0 -4 16
-25 35 -46 20 -22 40 -49 45 -61 5 -13 15 -23 22 -23 7 -1 30 -18 51 -38 33
-33 36 -42 28 -63 -7 -17 -10 -19 -10 -6 -1 9 -9 17 -19 17 -10 0 -24 6 -31
13 -11 9 -10 7 0 -10 8 -13 19 -23 26 -23 16 0 16 -6 3 -30 -7 -13 -6 -21 5
-30 8 -7 15 -18 15 -24 0 -7 7 -21 16 -32 8 -10 13 -14 10 -8 -3 7 3 14 13 17
14 3 18 1 14 -9 -3 -8 0 -14 6 -14 21 0 11 -19 -16 -32 -16 -8 -29 -23 -31
-36 -2 -12 -8 -20 -13 -17 -5 4 -9 -9 -10 -27 0 -21 -3 -27 -7 -17 -5 12 -13
14 -29 8 -17 -6 -21 -14 -17 -34 3 -15 1 -32 -5 -39 -5 -6 -11 -20 -14 -31 -2
-11 -5 1 -6 28 -1 34 -5 47 -15 47 -21 0 -29 -17 -11 -24 20 -7 19 -36 0 -36
-8 0 -15 -6 -15 -14 0 -8 -8 -13 -17 -12 -10 0 -18 -6 -18 -14 0 -8 9 -15 20
-15 15 0 22 -10 29 -36 10 -41 1 -83 -13 -60 -6 9 -10 7 -14 -8 -3 -12 -1 -19
5 -15 5 3 20 -4 33 -16 13 -12 30 -20 38 -17 23 9 19 -71 -4 -94 -15 -15 -19
-16 -19 -4 0 8 5 15 10 15 6 0 10 7 10 15 0 8 -4 15 -10 15 -5 0 -10 10 -10
23 0 18 -2 19 -10 7 -9 -13 -11 -13 -19 -1 -8 12 -13 11 -30 -10 -11 -13 -20
-29 -21 -36 0 -12 -40 -6 -40 7 0 4 10 10 23 13 16 5 22 14 23 34 1 15 -1 22
-3 16 -3 -8 -22 -13 -44 -13 -39 0 -52 -13 -24 -24 23 -8 19 -47 -6 -53 -16
-5 -19 -11 -14 -33 3 -16 1 -31 -4 -35 -16 -9 -13 -36 3 -33 16 3 18 -4 9 -29
-11 -30 -27 -34 -44 -11 -20 26 -41 15 -33 -18 8 -32 -15 -32 -39 1 -15 22
-16 26 -3 31 11 4 12 12 4 35 -13 38 -32 38 -25 0 5 -25 3 -30 -21 -37 -21 -5
-23 -8 -9 -11 12 -3 16 -11 12 -23 -4 -14 0 -19 16 -22 17 -2 22 -11 24 -45 2
-24 -1 -43 -6 -43 -9 0 -12 13 -10 41 2 23 -25 31 -40 13 -10 -13 -10 -17 2
-25 12 -8 12 -10 -1 -19 -24 -15 -41 -12 -47 10 -3 13 -14 20 -28 20 -29 0
-81 -26 -64 -32 8 -3 10 -11 6 -23 -7 -17 -8 -17 -20 -1 -12 16 -14 16 -26 2
-9 -11 -10 -16 -2 -16 17 0 13 -37 -5 -44 -9 -3 -27 -6 -40 -6 -13 0 -24 -4
-24 -8 0 -8 -14 -9 -102 -12 -23 -1 -26 -5 -23 -28 1 -15 -2 -32 -7 -39 -11
-13 6 -53 23 -53 6 0 7 -5 4 -11 -4 -6 -13 -8 -21 -5 -15 6 -19 -6 -7 -18 11
-10 11 -50 1 -63 -5 -7 -5 -14 1 -17 6 -4 8 -13 5 -21 -4 -8 1 -18 10 -21 22
-8 20 -51 -4 -96 -12 -22 -16 -40 -10 -43 14 -9 12 -65 -3 -95 -7 -14 -14 -55
-15 -91 -2 -63 -1 -67 25 -85 35 -23 232 -103 255 -104 9 0 20 -5 23 -10 4 -6
11 -8 16 -5 5 4 9 1 9 -4 0 -6 9 -11 21 -11 11 0 18 4 15 8 -10 16 9 28 34 21
16 -4 19 -7 8 -8 -10 -1 -18 -9 -18 -19 0 -12 13 -22 44 -31 25 -7 50 -10 55
-6 6 3 11 2 11 -3 0 -5 57 -22 128 -37 70 -15 157 -39 194 -52 64 -22 151 -36
381 -64 111 -13 682 -5 857 12 124 13 313 53 575 123 50 14 104 27 122 31 18
3 42 14 55 24 13 10 48 27 78 39 55 20 163 70 210 96 14 8 63 29 109 46 46 17
102 44 124 58 102 68 175 112 186 112 5 0 22 11 38 23 15 13 56 39 91 57 34
18 74 43 88 56 14 13 27 24 30 24 2 0 30 26 62 58 32 32 91 84 132 117 41 33
95 78 118 100 24 22 51 44 60 49 58 31 151 151 176 228 18 54 18 59 1 125 -10
37 -24 78 -31 90 -8 12 -14 35 -14 51 0 16 -11 51 -25 78 -14 27 -25 54 -25
61 0 22 -68 139 -104 178 -20 22 -51 62 -68 88 -17 26 -33 46 -35 43 -6 -5
-53 43 -53 53 0 4 -28 27 -62 51 -35 24 -64 47 -66 52 -2 4 -10 8 -17 8 -7 0
-53 20 -101 45 -49 25 -94 45 -99 45 -6 0 -34 15 -63 34 -29 18 -74 41 -100
50 -26 10 -63 26 -82 36 -19 10 -62 26 -95 36 -33 9 -76 24 -95 32 -78 34
-285 135 -290 141 -3 4 -36 22 -75 41 -38 19 -99 52 -135 74 -36 21 -73 39
-83 40 -10 1 -21 6 -25 12 -4 6 -34 29 -67 51 -95 64 -135 119 -159 219 -18
73 -41 480 -33 572 9 94 43 220 90 337 50 124 67 149 117 172 22 10 40 23 40
30 0 6 28 26 63 45 60 33 64 37 109 129 26 51 50 114 54 139 4 25 13 63 21 85
11 32 13 75 7 205 l-6 165 41 165 c22 91 41 190 42 220 0 30 4 87 8 125 13
120 -1 206 -57 335 -27 63 -59 149 -71 190 -53 178 -85 264 -129 347 -26 48
-59 110 -72 138 -14 27 -50 75 -80 105 -45 45 -74 63 -150 94 -52 21 -104 42
-115 47 -11 5 -51 13 -90 19 -128 19 -199 41 -270 85 -111 68 -255 89 -449 64z
m664 -1749 c11 -7 5 -10 -23 -10 -23 0 -36 4 -32 10 8 13 35 13 55 0z m-70
-142 c0 -14 -56 -8 -76 7 -17 13 -17 14 -1 15 9 0 17 6 17 14 0 25 25 24 42
-3 10 -14 18 -29 18 -33z m170 17 c0 -15 -26 -32 -36 -23 -2 3 -2 13 2 22 8
20 34 21 34 1z m-45 -125 c44 -10 105 -21 136 -25 53 -7 57 -9 63 -37 3 -17 6
-43 6 -58 0 -16 4 -30 10 -32 6 -2 5 -19 -1 -47 -5 -24 -7 -51 -4 -59 3 -7 -3
-26 -13 -40 -13 -18 -16 -35 -12 -52 4 -14 2 -37 -3 -52 l-9 -28 -19 23 c-16
19 -20 20 -29 7 -7 -11 -5 -19 8 -28 25 -19 16 -52 -27 -94 -27 -27 -48 -39
-72 -41 -19 -1 -34 -8 -34 -14 0 -6 -3 -15 -7 -19 -5 -4 -8 -16 -8 -27 0 -16
-5 -15 -39 12 -21 17 -43 31 -48 31 -5 0 -21 12 -35 28 -21 22 -27 40 -31 97
-7 83 -49 225 -55 185 -6 -37 -19 -46 -41 -26 -25 23 -25 66 1 66 53 0 81 54
34 66 -16 4 -26 15 -30 32 -19 90 -19 89 5 106 13 9 20 16 16 16 -4 0 -1 10 8
23 14 22 18 23 83 15 37 -5 103 -17 147 -28z m-500 -400 c16 0 51 -67 41 -77
-3 -3 -6 1 -6 10 0 22 -11 21 -54 -4 l-36 -21 0 44 c0 49 7 61 28 53 7 -3 20
-5 27 -5z m1095 -34 c0 -3 -4 -8 -10 -11 -5 -3 -10 -1 -10 4 0 6 5 11 10 11 6
0 10 -2 10 -4z m-1008 -143 c31 -6 44 -31 26 -49 -14 -14 -96 -46 -113 -45 -5
1 -32 3 -59 5 -63 5 -78 32 -42 71 20 22 26 23 53 13 26 -10 35 -9 55 5 12 9
30 13 38 10 8 -3 27 -8 42 -10z m243 -683 c3 -5 -3 -10 -14 -10 -12 0 -21 5
-21 10 0 6 6 10 14 10 8 0 18 -4 21 -10z m185 -750 c0 -5 -5 -10 -11 -10 -5 0
-7 5 -4 10 3 6 8 10 11 10 2 0 4 -4 4 -10z m-1547 -32 c9 0 17 -3 17 -8 0 -5
3 -16 6 -24 5 -12 2 -15 -12 -9 -12 4 -15 3 -10 -5 4 -7 2 -12 -3 -12 -6 0
-11 8 -11 17 0 15 -2 14 -15 -3 -9 -12 -14 -14 -15 -6 0 7 -4 10 -10 7 -6 -4
-10 7 -10 25 0 28 2 31 23 24 12 -4 30 -7 40 -6z m80 -275 l5 -27 -18 24 c-10
14 -16 28 -14 32 9 14 21 0 27 -29z m-128 -34 c7 -43 3 -55 -15 -44 -7 4 -10
22 -8 41 2 19 0 34 -4 34 -4 0 -8 4 -8 10 0 5 6 7 14 4 8 -3 18 -24 21 -45z
m175 -95 c0 -8 -4 -12 -10 -9 -5 3 -10 10 -10 16 0 5 5 9 10 9 6 0 10 -7 10
-16z m140 -359 c0 -8 -2 -15 -4 -15 -2 0 -6 7 -10 15 -3 8 -1 15 4 15 6 0 10
-7 10 -15z m-29 -13 c-7 -2 -18 1 -23 6 -8 8 -4 9 13 5 13 -4 18 -8 10 -11z
m209 -68 c0 -2 -7 -4 -15 -4 -8 0 -15 4 -15 10 0 5 7 7 15 4 8 -4 15 -8 15
-10z m-156 -83 c3 -5 -1 -14 -9 -21 -13 -10 -15 -9 -15 9 0 21 14 28 24 12z
m-47 -23 c-3 -8 -6 -5 -6 6 -1 11 2 17 5 13 3 -3 4 -12 1 -19z m20 -70 c-3 -8
-6 -5 -6 6 -1 11 2 17 5 13 3 -3 4 -12 1 -19z m-46 -41 c-10 -25 -41 -36 -41
-13 0 19 29 48 40 41 5 -3 5 -16 1 -28z m45 -74 c-10 -10 -19 5 -10 18 6 11 8
11 12 0 2 -7 1 -15 -2 -18z m-96 -26 c0 -7 -11 -17 -25 -24 -20 -9 -25 -8 -25
2 0 18 29 47 41 40 5 -4 9 -12 9 -18z m155 -116 c3 -5 1 -12 -5 -16 -5 -3 -10
1 -10 9 0 18 6 21 15 7z m-105 -81 c0 -5 -2 -10 -4 -10 -3 0 -8 5 -11 10 -3 6
-1 10 4 10 6 0 11 -4 11 -10z m-130 -40 c0 -5 -4 -10 -10 -10 -5 0 -10 5 -10
10 0 6 5 10 10 10 6 0 10 -4 10 -10z m201 -23 c-16 -16 -26 0 -10 19 9 11 15
12 17 4 2 -6 -1 -17 -7 -23z m-185 -38 c10 -16 -22 -43 -42 -35 -16 6 -16 8 1
26 20 23 31 25 41 9z m24 -71 c0 -19 -2 -20 -10 -8 -13 19 -13 30 0 30 6 0 10
-10 10 -22z m50 18 c0 -3 -4 -8 -10 -11 -5 -3 -10 -1 -10 4 0 6 5 11 10 11 6
0 10 -2 10 -4z m60 -6 c0 -5 -2 -10 -4 -10 -3 0 -8 5 -11 10 -3 6 -1 10 4 10
6 0 11 -4 11 -10z m-225 -31 c0 -28 -23 -32 -39 -6 -8 14 -8 20 4 27 22 14 35
6 35 -21z m60 -69 c0 -19 6 -40 14 -46 12 -9 9 -11 -15 -10 -28 1 -29 3 -29
49 0 37 3 47 15 45 10 -2 15 -15 15 -38z m-98 -17 c-3 -10 -5 -4 -5 12 0 17 2
24 5 18 2 -7 2 -21 0 -30z m53 27 c0 -5 -4 -10 -10 -10 -5 0 -10 5 -10 10 0 6
5 10 10 10 6 0 10 -4 10 -10z m-173 -62 c19 -24 21 -56 5 -63 -8 -3 -17 -3
-20 0 -3 3 0 5 6 5 9 0 9 6 0 25 -6 14 -17 25 -25 25 -7 0 -13 5 -13 10 0 14
36 12 47 -2z m-40 -50 c-3 -8 -6 -5 -6 6 -1 11 2 17 5 13 3 -3 4 -12 1 -19z
m-117 -19 c0 -5 -11 -11 -25 -15 -14 -3 -25 -12 -25 -20 0 -8 -4 -14 -8 -14
-12 0 -37 49 -29 57 4 3 7 1 7 -6 0 -8 10 -5 26 8 21 16 30 18 40 10 8 -6 14
-15 14 -20z m-211 -77 c-10 -2 -19 -7 -19 -12 0 -16 21 -22 34 -11 10 8 17 7
26 -4 10 -12 16 -13 26 -4 11 9 14 8 14 -5 0 -9 -4 -16 -10 -16 -5 0 -10 -7
-10 -15 0 -13 -4 -14 -22 -4 -14 8 -23 8 -25 2 -2 -6 -17 2 -34 18 -31 29 -31
37 -1 71 14 17 16 17 28 0 11 -14 10 -17 -7 -20z m631 -31 c-11 -21 -30 -29
-30 -12 0 12 31 43 37 37 3 -2 0 -14 -7 -25z m-414 -38 c-10 -10 -19 5 -10 18
6 11 8 11 12 0 2 -7 1 -15 -2 -18z m-228 -54 c-2 -6 -8 -10 -13 -10 -5 0 -11
4 -13 10 -2 6 4 11 13 11 9 0 15 -5 13 -11z m59 -11 c-3 -8 -6 -5 -6 6 -1 11
2 17 5 13 3 -3 4 -12 1 -19z m163 12 c0 -5 -4 -10 -10 -10 -5 0 -10 5 -10 10
0 6 5 10 10 10 6 0 10 -4 10 -10z m2397 -446 c-3 -3 -12 -4 -19 -1 -8 3 -5 6
6 6 11 1 17 -2 13 -5z m-2181 -145 c3 -6 -3 -21 -15 -32 -17 -18 -21 -19 -21
-5 0 39 21 61 36 37z m2161 -61 c-3 -8 -6 -5 -6 6 -1 11 2 17 5 13 3 -3 4 -12
1 -19z"/>
<path d="M4475 6581 c-68 -40 -115 -85 -117 -113 0 -13 -2 -36 -4 -53 -3 -35
4 -65 15 -65 11 0 41 67 41 91 0 11 8 22 18 25 9 3 25 10 34 15 29 15 61 11
54 -6 -5 -15 27 -22 79 -16 36 4 125 -10 125 -20 0 -5 -13 -12 -30 -15 -39 -8
-28 -24 16 -24 62 0 45 -14 -71 -55 -55 -20 -116 -57 -152 -93 -39 -39 -33
-44 71 -56 27 -3 54 -10 60 -14 17 -13 111 -14 156 -2 33 9 90 50 90 65 0 2
-21 1 -46 -1 -44 -5 -46 -5 -39 18 11 35 19 40 56 31 23 -6 35 -16 37 -30 3
-18 10 -21 48 -21 47 1 53 8 29 28 -8 7 -15 19 -15 26 0 17 22 18 37 3 15 -15
33 -3 33 21 0 10 4 21 9 25 6 3 10 13 9 23 0 9 5 43 11 74 15 71 6 90 -51 119
-50 26 -125 36 -313 44 l-140 6 -50 -30z m153 -313 c29 -29 -1 -52 -37 -29
-12 8 -12 12 -2 25 16 19 23 20 39 4z"/>
<path d="M4587 6389 c-22 -11 -37 -23 -34 -25 5 -6 87 33 87 41 0 9 -14 4 -53
-16z"/>
<path d="M4492 6318 c-7 -7 -12 -15 -12 -20 0 -12 28 2 34 18 7 17 -6 18 -22
2z"/>
<path d="M5353 5310 c-11 -30 -7 -35 21 -24 19 7 21 28 3 42 -10 9 -16 4 -24
-18z"/>
<path d="M5105 5295 c-19 -15 -19 -16 -1 -11 10 4 54 -1 98 -11 55 -11 82 -13
89 -6 8 8 -8 14 -53 22 -35 7 -74 14 -88 17 -15 3 -33 -1 -45 -11z"/>
<path d="M4462 4930 c0 -19 2 -27 5 -17 2 9 2 25 0 35 -3 9 -5 1 -5 -18z"/>
<path d="M3950 4120 c-9 -6 -10 -10 -3 -10 6 0 15 5 18 10 8 12 4 12 -15 0z"/>
<path d="M3869 4093 c-1 -5 -1 -11 -1 -14 1 -4 -7 -5 -17 -2 -10 2 -79 -26
-157 -65 -76 -38 -150 -74 -164 -80 -18 -8 -20 -11 -7 -11 30 -1 19 -19 -20
-32 -21 -6 -44 -16 -51 -22 -7 -6 -41 -10 -75 -10 -34 0 -64 -4 -67 -8 -6 -9
-39 -17 -75 -18 -17 -1 -17 -3 -5 -11 12 -8 11 -10 -7 -10 -14 0 -23 -6 -23
-15 0 -21 -18 -19 -23 3 -3 14 -6 12 -17 -10 -7 -16 -17 -28 -22 -28 -5 0 -6
5 -3 10 4 6 -7 10 -27 9 -31 -1 -31 -2 -8 -9 l25 -7 -27 -11 c-22 -9 -28 -18
-28 -41 0 -34 -34 -49 -60 -26 -22 20 -30 19 -30 -3 0 -11 -11 -24 -25 -30
-14 -6 -25 -18 -25 -27 0 -20 53 -20 70 0 7 8 19 15 26 15 8 0 14 7 14 15 0 8
5 15 10 15 15 0 12 -16 -5 -30 -9 -7 -14 -19 -11 -27 4 -10 -6 -13 -41 -13
-43 0 -45 -1 -31 -17 9 -10 20 -31 25 -47 10 -32 59 -54 77 -36 7 7 4 10 -7
10 -20 0 -21 8 -7 44 12 33 23 33 45 -1 16 -24 16 -27 1 -38 -9 -7 -16 -17
-16 -24 0 -6 -7 -11 -15 -11 -8 0 -15 -4 -15 -10 0 -9 21 -11 125 -14 30 -1
32 -6 19 -40 -5 -14 -4 -17 4 -12 7 4 12 14 12 22 0 8 5 14 10 14 6 0 10 -4
10 -10 0 -5 5 -10 11 -10 6 0 8 9 4 20 -3 11 -2 20 4 20 11 0 26 -39 17 -47
-3 -3 -1 -14 5 -24 7 -14 6 -19 -3 -19 -7 0 2 -9 20 -20 17 -11 32 -26 32 -34
0 -7 9 -16 20 -19 21 -5 28 -27 9 -27 -6 0 -8 -7 -5 -15 3 -9 0 -24 -6 -35
-20 -32 -1 -34 29 -3 30 32 83 39 91 13 3 -9 -1 -11 -13 -6 -14 5 -16 2 -11
-19 4 -14 2 -25 -4 -25 -5 0 -10 -7 -10 -15 0 -8 5 -15 10 -15 6 0 10 -8 10
-18 0 -15 -7 -17 -41 -14 -24 3 -36 7 -29 12 8 5 9 10 1 14 -6 4 -13 -5 -16
-21 -3 -15 -10 -40 -14 -55 -5 -16 -6 -30 -3 -32 15 -9 72 7 72 20 0 8 6 14
13 14 17 0 48 55 42 72 -4 9 3 19 16 24 20 9 21 11 5 27 -10 9 -16 27 -15 40
1 12 -1 37 -5 54 -5 20 -3 46 5 67 14 38 7 58 -13 38 -17 -17 -48 -15 -48 3 0
8 7 15 15 15 8 0 15 5 15 10 0 6 -5 10 -10 10 -6 0 -9 3 -9 8 5 27 -3 52 -16
52 -8 0 -15 4 -15 9 0 5 -3 18 -6 28 -5 17 -5 17 9 1 20 -25 27 -22 27 7 0 14
5 25 10 25 6 0 10 7 10 15 0 8 -6 15 -12 15 -9 0 -8 4 2 10 13 8 12 10 -4 10
-20 0 -20 0 0 15 16 13 17 16 4 24 -13 9 -12 12 5 24 21 16 45 12 45 -8 0 -13
58 -13 79 -1 5 4 12 -2 15 -12 9 -27 66 -86 66 -68 0 9 9 16 20 16 11 0 20 -5
20 -10 0 -15 46 -34 66 -26 14 5 9 15 -30 56 -55 59 -61 90 -16 90 20 0 30 -5
30 -15 0 -8 5 -15 11 -15 8 0 8 -5 -1 -15 -10 -12 -10 -15 4 -15 9 0 16 7 16
16 0 14 2 15 17 3 15 -12 16 -12 10 4 -4 10 -7 21 -7 23 0 2 -6 4 -14 4 -7 0
-16 9 -19 21 -4 15 -2 19 8 15 8 -3 15 3 17 15 4 26 22 25 26 -1 5 -30 36 -21
39 10 1 14 0 19 -3 13 -8 -18 -24 -16 -24 2 0 8 11 17 25 21 21 5 24 11 19 28
-4 11 -13 25 -21 29 -21 13 -35 56 -23 75 9 16 9 16 10 0 0 -10 4 -18 10 -18
5 0 16 -13 25 -30 9 -16 19 -30 24 -30 8 0 18 76 25 175 1 22 6 48 10 58 7 14
3 17 -18 17 -14 0 -27 -3 -27 -7z m-96 -83 c-19 -22 -26 -21 -17 4 3 9 12 16
20 16 11 0 10 -4 -3 -20z m-33 -86 c0 -8 -5 -12 -10 -9 -6 4 -8 11 -5 16 9 14
15 11 15 -7z m-190 -197 c0 -7 14 -21 30 -30 32 -19 39 -37 16 -37 -8 0 -16 7
-20 15 -3 8 -12 15 -19 15 -19 0 -40 26 -32 40 9 14 25 13 25 -3z m70 9 c0 -3
-4 -8 -10 -11 -5 -3 -10 -1 -10 4 0 6 5 11 10 11 6 0 10 -2 10 -4z m33 -21 c4
-8 2 -17 -3 -20 -6 -4 -10 -4 -10 -1 0 2 -3 11 -6 20 -3 9 -2 16 4 16 5 0 12
-7 15 -15z m-535 -29 c0 -22 -2 -23 -15 -10 -8 8 -12 21 -9 30 8 22 24 9 24
-20z m87 14 c-3 -5 -13 -10 -21 -10 -8 0 -14 5 -14 10 0 6 9 10 21 10 11 0 17
-4 14 -10z m315 -10 c0 -5 -2 -10 -4 -10 -3 0 -8 5 -11 10 -3 6 -1 10 4 10 6
0 11 -4 11 -10z m-315 -60 c-3 -5 -12 -10 -18 -10 -7 0 -6 4 3 10 19 12 23 12
15 0z m-179 -65 c-10 -8 -23 -12 -28 -9 -14 9 2 24 25 24 21 -1 21 -1 3 -15z
m138 -44 c3 -5 -6 -8 -19 -8 -14 0 -25 3 -25 8 0 5 9 9 19 9 11 0 22 -4 25 -9z
m53 -33 c-3 -8 -6 -5 -6 6 -1 11 2 17 5 13 3 -3 4 -12 1 -19z m186 -165 c-7
-2 -19 -2 -25 0 -7 3 -2 5 12 5 14 0 19 -2 13 -5z m27 -37 c0 -2 -7 -6 -15
-10 -8 -3 -15 -1 -15 4 0 6 7 10 15 10 8 0 15 -2 15 -4z m40 -101 c0 -8 -4
-15 -10 -15 -5 0 -10 7 -10 15 0 8 5 15 10 15 6 0 10 -7 10 -15z"/>
<path d="M3945 4079 c-7 -10 0 -76 12 -127 3 -12 13 -27 23 -32 16 -9 17 -7
10 18 -26 83 -32 113 -27 131 5 22 -7 29 -18 10z"/>
<path d="M5640 4030 c0 -5 4 -10 9 -10 6 0 13 5 16 10 3 6 -1 10 -9 10 -9 0
-16 -4 -16 -10z"/>
<path d="M5665 3961 c-3 -5 -1 -12 5 -16 5 -3 10 1 10 9 0 18 -6 21 -15 7z"/>
<path d="M3453 3910 c-13 -5 -23 -12 -23 -15 0 -10 27 -5 46 10 21 16 11 18
-23 5z"/>
<path d="M3841 3694 c0 -11 3 -14 6 -6 3 7 2 16 -1 19 -3 4 -6 -2 -5 -13z"/>
<path d="M3690 3680 c8 -5 20 -10 25 -10 6 0 3 5 -5 10 -8 5 -19 10 -25 10 -5
0 -3 -5 5 -10z"/>
<path d="M2770 3609 c-33 -28 -33 -30 -10 -25 14 3 28 6 31 6 9 0 30 50 21 50
-4 0 -23 -14 -42 -31z"/>
<path d="M2886 3622 c-2 -4 4 -19 15 -32 15 -20 19 -22 19 -7 0 9 -4 17 -10
17 -5 0 -7 7 -4 15 6 15 -11 21 -20 7z"/>
<path d="M3490 3615 c0 -9 5 -15 11 -13 6 2 11 8 11 13 0 5 -5 11 -11 13 -6 2
-11 -4 -11 -13z"/>
<path d="M3065 3530 c-3 -5 1 -10 9 -10 9 0 16 5 16 10 0 6 -4 10 -9 10 -6 0
-13 -4 -16 -10z"/>
<path d="M4190 3509 c0 -5 5 -7 10 -4 6 3 10 8 10 11 0 2 -4 4 -10 4 -5 0 -10
-5 -10 -11z"/>
<path d="M3084 3433 c0 -10 -5 -17 -13 -15 -26 5 -42 -19 -35 -54 5 -27 3 -34
-10 -34 -21 0 -20 -19 2 -27 23 -9 33 -25 26 -44 -2 -9 0 -36 5 -60 10 -47 26
-283 25 -384 0 -95 -24 -409 -30 -403 -2 3 -6 78 -9 169 -3 90 -10 188 -15
218 -5 29 -13 97 -16 150 -4 53 -11 101 -16 107 -4 6 -6 19 -2 28 3 9 3 24 -2
34 -4 9 -8 33 -9 52 -2 40 -11 82 -27 127 -9 25 -9 35 3 50 12 16 12 16 -8 -1
-13 -10 -20 -22 -18 -27 11 -16 -17 -20 -39 -6 -22 15 -24 14 -35 -6 -18 -34
-3 -392 25 -582 10 -70 11 -95 4 -95 -9 0 -31 81 -24 91 2 4 -3 9 -11 13 -8 3
-15 16 -15 30 0 14 -5 28 -11 31 -6 4 -8 13 -5 21 3 7 -2 17 -11 22 -10 6 -16
25 -17 55 0 25 -6 51 -12 57 -11 11 -7 60 5 60 8 0 4 31 -21 184 -13 78 -31
106 -45 69 -4 -10 -14 -23 -22 -30 -9 -6 -21 -31 -28 -55 -10 -37 -12 -40 -18
-20 -4 12 -11 22 -16 22 -15 0 -10 38 6 44 16 6 21 71 6 80 -15 10 -36 -25
-32 -57 2 -24 0 -29 -13 -24 -11 5 -16 1 -16 -14 0 -11 7 -22 16 -26 9 -3 13
-12 8 -22 -3 -9 -6 -34 -5 -56 0 -22 3 -99 5 -171 2 -73 6 -137 10 -143 4 -6
8 -49 9 -95 2 -80 1 -83 -11 -49 -7 20 -19 44 -27 53 -20 22 -19 31 1 23 14
-5 16 -2 10 23 -13 55 -29 85 -42 80 -21 -8 -29 16 -11 29 20 14 22 26 5 23
-9 -2 -12 9 -11 35 2 20 -1 37 -7 37 -11 0 -1 32 14 43 7 5 5 11 -6 18 -23 13
-23 35 -2 47 19 11 10 32 -13 32 -10 0 -14 6 -10 20 3 11 1 23 -4 26 -12 7
-12 60 0 102 7 21 6 43 0 59 -9 26 -10 26 -27 7 -10 -11 -27 -43 -37 -72 -10
-28 -22 -52 -26 -52 -4 0 -10 -19 -13 -42 -7 -46 -25 -100 -43 -133 -6 -11
-14 -57 -18 -102 -4 -46 -11 -81 -14 -79 -4 3 -8 -27 -9 -65 -1 -39 -6 -78
-11 -87 -5 -11 -2 -36 10 -72 15 -47 32 -68 116 -148 54 -51 114 -104 133
-116 38 -25 58 -46 58 -60 0 -13 83 -76 93 -70 5 3 12 -3 16 -13 4 -10 16 -27
28 -38 29 -28 173 -135 181 -135 3 0 20 -10 37 -22 22 -16 32 -19 35 -9 3 8 9
4 16 -11 13 -26 92 -82 176 -124 30 -15 57 -30 60 -33 3 -4 33 -18 67 -33 l62
-26 5 26 c8 45 4 61 -13 54 -14 -5 -14 -3 -2 11 7 9 20 17 28 17 10 0 13 6 9
15 -3 8 -9 22 -12 30 -4 11 -2 13 9 9 9 -3 13 -12 10 -20 -4 -10 0 -12 11 -8
8 3 17 13 20 22 6 22 1 91 -8 99 -11 12 -6 23 10 23 12 0 15 7 12 25 -3 14 -1
28 3 31 28 17 -16 89 -47 77 -11 -4 -15 -3 -10 5 3 6 1 14 -4 17 -6 4 -10 19
-8 33 3 24 0 27 -27 24 -16 -1 -36 2 -44 7 -12 8 -12 12 2 26 18 17 24 60 8
50 -5 -3 -11 9 -13 27 -3 30 -6 33 -35 32 -27 0 -33 4 -33 21 0 12 -5 26 -12
33 -12 12 -13 107 -1 126 4 6 8 27 9 46 1 19 4 54 7 77 3 24 2 45 -3 48 -5 3
-7 12 -4 20 5 12 11 12 34 -5 l28 -20 13 37 c6 21 16 41 22 44 12 9 0 29 -18
29 -8 0 -11 -7 -8 -20 6 -24 -10 -26 -32 -4 -15 16 -16 48 -2 72 5 8 3 12 -7
12 -9 0 -17 9 -18 23 -4 69 -4 83 5 95 6 8 6 12 -1 12 -6 0 -9 6 -7 13 7 17
-5 30 -38 45 -22 9 -27 17 -22 32 3 11 -1 30 -11 45 -13 20 -13 25 -3 25 12 0
12 2 0 9 -10 6 -6 13 18 27 33 19 35 23 25 48 -8 20 -24 11 -24 -15 0 -10 -6
-19 -13 -19 -22 0 -26 10 -17 36 7 18 6 22 -5 18 -8 -3 -22 -1 -32 5 -17 10
-17 10 0 11 9 0 18 5 18 10 1 6 2 16 3 23 1 6 -4 23 -10 36 -7 13 -10 30 -7
37 3 8 0 14 -6 14 -6 0 -11 -5 -11 -11 0 -7 -10 -5 -25 5 -31 21 -43 20 -41
-1z m68 -75 c-9 -9 -15 -9 -24 0 -9 9 -7 12 12 12 19 0 21 -3 12 -12z m-382
-322 c0 -11 -19 -15 -25 -6 -3 5 1 10 9 10 9 0 16 -2 16 -4z m487 -38 c-3 -8
-6 -5 -6 6 -1 11 2 17 5 13 3 -3 4 -12 1 -19z m-680 -219 c1 -19 1 -20 -4 -4
-3 11 -10 24 -17 28 -7 6 -6 7 4 4 8 -2 16 -14 17 -28z m60 -211 c-3 -8 -6 -5
-6 6 -1 11 2 17 5 13 3 -3 4 -12 1 -19z m415 -308 l-9 -75 -2 92 c0 50 2 100
7 110 12 29 14 -41 4 -127z m278 90 c0 -5 -2 -10 -4 -10 -3 0 -8 5 -11 10 -3
6 -1 10 4 10 6 0 11 -4 11 -10z m-612 -71 c-3 -8 -7 -3 -11 10 -4 17 -3 21 5
13 5 -5 8 -16 6 -23z m329 -141 c-3 -8 -6 -5 -6 6 -1 11 2 17 5 13 3 -3 4 -12
1 -19z m393 -178 c0 -5 -4 -10 -10 -10 -5 0 -10 5 -10 10 0 6 5 10 10 10 6 0
10 -4 10 -10z"/>
<path d="M3525 3439 c-11 -17 1 -21 15 -4 8 9 8 15 2 15 -6 0 -14 -5 -17 -11z"/>
<path d="M3016 3425 c4 -8 10 -12 15 -9 14 8 10 24 -6 24 -9 0 -12 -6 -9 -15z"/>
<path d="M2611 3405 c1 -19 18 -51 18 -35 0 8 -4 22 -9 30 -5 8 -9 11 -9 5z"/>
<path d="M3220 3364 c0 -13 18 -39 24 -34 2 3 -2 14 -10 24 -8 11 -14 16 -14
10z"/>
<path d="M3570 3295 c0 -8 4 -15 10 -15 5 0 7 7 4 15 -4 8 -8 15 -10 15 -2 0
-4 -7 -4 -15z"/>
<path d="M2694 3287 c-8 -21 2 -35 16 -21 5 5 6 15 0 24 -8 12 -10 12 -16 -3z"/>
<path d="M3600 3260 c-8 -5 -11 -12 -8 -16 10 -9 38 3 38 16 0 12 -10 13 -30
0z"/>
<path d="M4180 3130 c0 -5 7 -10 16 -10 8 0 12 5 9 10 -3 6 -10 10 -16 10 -5
0 -9 -4 -9 -10z"/>
<path d="M2540 3109 c0 -5 5 -7 10 -4 6 3 10 8 10 11 0 2 -4 4 -10 4 -5 0 -10
-5 -10 -11z"/>
<path d="M3470 3075 c0 -8 5 -15 10 -15 6 0 10 7 10 15 0 8 -4 15 -10 15 -5 0
-10 -7 -10 -15z"/>
<path d="M4175 3071 c-3 -5 -1 -12 5 -16 5 -3 10 1 10 9 0 18 -6 21 -15 7z"/>
<path d="M3404 3025 c-18 -13 -16 -14 26 -14 42 0 44 1 26 14 -11 8 -23 15
-26 15 -3 0 -15 -7 -26 -15z"/>
<path d="M4000 3031 c0 -9 30 -24 36 -18 2 1 -6 8 -16 15 -11 7 -20 8 -20 3z"/>
<path d="M4123 3000 c-11 -16 -9 -21 9 -34 17 -12 20 -18 10 -28 -14 -14 -16
-84 -2 -93 6 -4 10 7 10 27 0 26 3 30 11 18 8 -11 9 -6 6 20 -3 19 -8 44 -10
55 -3 11 -6 28 -6 38 -1 23 -13 22 -28 -3z"/>
<path d="M3433 2976 c-10 -12 -10 -15 0 -19 19 -6 48 5 44 17 -5 17 -30 17
-44 2z"/>
<path d="M3983 2983 c-12 -2 -24 -11 -27 -19 -5 -12 -1 -14 17 -8 12 4 24 10
27 14 3 4 12 10 20 13 13 5 13 5 0 5 -8 0 -25 -3 -37 -5z"/>
<path d="M4055 2930 c-2 -3 5 -14 16 -23 10 -9 19 -24 19 -32 0 -8 5 -15 10
-15 16 0 11 40 -6 47 -8 3 -13 11 -11 18 5 12 -21 17 -28 5z"/>
<path d="M2570 2909 c0 -5 5 -7 10 -4 6 3 10 8 10 11 0 2 -4 4 -10 4 -5 0 -10
-5 -10 -11z"/>
<path d="M3920 2875 c0 -8 2 -15 4 -15 2 0 6 7 10 15 3 8 1 15 -4 15 -6 0 -10
-7 -10 -15z"/>
<path d="M4056 2821 c-4 -7 -5 -15 -2 -18 9 -9 19 4 14 18 -4 11 -6 11 -12 0z"/>
<path d="M3980 2771 c0 -6 5 -13 10 -16 6 -3 10 1 10 9 0 9 -4 16 -10 16 -5 0
-10 -4 -10 -9z"/>
<path d="M3960 2725 c0 -8 4 -15 10 -15 5 0 7 7 4 15 -4 8 -8 15 -10 15 -2 0
-4 -7 -4 -15z"/>
<path d="M3799 2570 c0 -3 -2 -13 -4 -22 -2 -10 1 -18 5 -18 15 0 19 15 9 30
-5 8 -9 13 -10 10z"/>
<path d="M3645 2459 c-10 -15 3 -25 16 -12 7 7 7 13 1 17 -6 3 -14 1 -17 -5z"/>
<path d="M3351 2423 c-12 -13 -12 -16 0 -24 9 -6 15 -4 17 6 6 26 -2 34 -17
18z"/>
<path d="M3384 2305 c-15 -23 -15 -28 -3 -36 10 -6 15 -3 17 11 2 11 10 20 19
20 8 0 13 5 11 12 -8 22 -27 19 -44 -7z"/>
<path d="M3440 2280 c0 -5 7 -10 15 -10 8 0 15 5 15 10 0 6 -7 10 -15 10 -8 0
-15 -4 -15 -10z"/>
<path d="M3491 2213 c-1 -12 4 -25 9 -28 12 -7 12 2 0 30 -8 19 -9 19 -9 -2z"/>
</g>
</svg>
